<mxfile host="app.diagrams.net" modified="2022-07-19T14:12:16.502Z" agent="5.0 (Windows NT 10.0; WOW64) AppleWebKit/537.36 (KHTML, like Gecko) Chrome/103.0.0.0 Safari/537.36" etag="g6_82Qd_SykJAc-4zFxR" version="20.1.1" type="github">
  <diagram id="JNOyA5OwboDVhIGOmm55" name="Page-1">
    <mxGraphModel dx="1662" dy="794" grid="1" gridSize="10" guides="1" tooltips="1" connect="1" arrows="1" fold="1" page="1" pageScale="1" pageWidth="1100" pageHeight="850" math="0" shadow="0">
      <root>
        <mxCell id="0" />
        <mxCell id="1" parent="0" />
        <mxCell id="h74z9uMU7J8Vw6V2kUzG-3" value="Uploads" style="edgeStyle=orthogonalEdgeStyle;rounded=0;orthogonalLoop=1;jettySize=auto;html=1;" parent="1" source="h74z9uMU7J8Vw6V2kUzG-1" target="h74z9uMU7J8Vw6V2kUzG-2" edge="1">
          <mxGeometry relative="1" as="geometry" />
        </mxCell>
        <mxCell id="h74z9uMU7J8Vw6V2kUzG-1" value="3P Integrator" style="aspect=fixed;html=1;points=[];align=center;image;fontSize=12;image=img/lib/azure2/identity/Users.svg;" parent="1" vertex="1">
          <mxGeometry x="10" y="118" width="54.86" height="60" as="geometry" />
        </mxCell>
        <mxCell id="h74z9uMU7J8Vw6V2kUzG-5" value="" style="edgeStyle=orthogonalEdgeStyle;rounded=0;orthogonalLoop=1;jettySize=auto;html=1;" parent="1" source="h74z9uMU7J8Vw6V2kUzG-2" target="h74z9uMU7J8Vw6V2kUzG-4" edge="1">
          <mxGeometry relative="1" as="geometry" />
        </mxCell>
        <mxCell id="h74z9uMU7J8Vw6V2kUzG-2" value="Dockers&lt;br&gt;+&amp;nbsp;&lt;br&gt;HELMS" style="whiteSpace=wrap;html=1;verticalAlign=top;labelBackgroundColor=default;" parent="1" vertex="1">
          <mxGeometry x="139.29000000000002" y="118" width="120" height="60" as="geometry" />
        </mxCell>
        <mxCell id="h74z9uMU7J8Vw6V2kUzG-10" value="" style="edgeStyle=orthogonalEdgeStyle;rounded=0;orthogonalLoop=1;jettySize=auto;html=1;" parent="1" source="h74z9uMU7J8Vw6V2kUzG-4" target="h74z9uMU7J8Vw6V2kUzG-9" edge="1">
          <mxGeometry relative="1" as="geometry" />
        </mxCell>
        <mxCell id="h74z9uMU7J8Vw6V2kUzG-4" value="Scan Virus" style="whiteSpace=wrap;html=1;verticalAlign=top;labelBackgroundColor=default;" parent="1" vertex="1">
          <mxGeometry x="322.29" y="118" width="120" height="60" as="geometry" />
        </mxCell>
        <mxCell id="h74z9uMU7J8Vw6V2kUzG-14" value="" style="edgeStyle=orthogonalEdgeStyle;rounded=0;orthogonalLoop=1;jettySize=auto;html=1;startArrow=none;" parent="1" source="h74z9uMU7J8Vw6V2kUzG-18" target="h74z9uMU7J8Vw6V2kUzG-13" edge="1">
          <mxGeometry relative="1" as="geometry" />
        </mxCell>
        <mxCell id="h74z9uMU7J8Vw6V2kUzG-6" value="EXE/MSI+&amp;nbsp;&lt;br&gt;BATCH FILES" style="whiteSpace=wrap;html=1;verticalAlign=top;labelBackgroundColor=default;" parent="1" vertex="1">
          <mxGeometry x="160.00000000000003" y="506" width="120" height="60" as="geometry" />
        </mxCell>
        <mxCell id="h74z9uMU7J8Vw6V2kUzG-22" value="" style="edgeStyle=orthogonalEdgeStyle;rounded=0;orthogonalLoop=1;jettySize=auto;html=1;startArrow=none;" parent="1" source="h74z9uMU7J8Vw6V2kUzG-20" target="h74z9uMU7J8Vw6V2kUzG-21" edge="1">
          <mxGeometry relative="1" as="geometry" />
        </mxCell>
        <mxCell id="h74z9uMU7J8Vw6V2kUzG-7" value="JAR + &lt;br&gt;BATCH FILES" style="whiteSpace=wrap;html=1;verticalAlign=top;labelBackgroundColor=default;" parent="1" vertex="1">
          <mxGeometry x="160.00000000000003" y="606" width="120" height="60" as="geometry" />
        </mxCell>
        <mxCell id="h74z9uMU7J8Vw6V2kUzG-24" value="" style="edgeStyle=orthogonalEdgeStyle;rounded=0;orthogonalLoop=1;jettySize=auto;html=1;startArrow=none;" parent="1" source="h74z9uMU7J8Vw6V2kUzG-32" target="h74z9uMU7J8Vw6V2kUzG-23" edge="1">
          <mxGeometry relative="1" as="geometry" />
        </mxCell>
        <mxCell id="h74z9uMU7J8Vw6V2kUzG-8" value="OVA + &lt;br&gt;BATCH FILES" style="whiteSpace=wrap;html=1;verticalAlign=top;labelBackgroundColor=default;" parent="1" vertex="1">
          <mxGeometry x="160.00000000000003" y="706" width="120" height="60" as="geometry" />
        </mxCell>
        <mxCell id="h74z9uMU7J8Vw6V2kUzG-12" value="&lt;br&gt;&lt;span style=&quot;color: rgb(0, 0, 0); font-family: Helvetica; font-size: 12px; font-style: normal; font-variant-ligatures: normal; font-variant-caps: normal; font-weight: 400; letter-spacing: normal; orphans: 2; text-align: center; text-indent: 0px; text-transform: none; widows: 2; word-spacing: 0px; -webkit-text-stroke-width: 0px; background-color: rgb(255, 255, 255); text-decoration-thickness: initial; text-decoration-style: initial; text-decoration-color: initial; float: none; display: inline !important;&quot;&gt;Provision Sandbox&lt;/span&gt;&lt;br style=&quot;color: rgb(0, 0, 0); font-family: Helvetica; font-size: 12px; font-style: normal; font-variant-ligatures: normal; font-variant-caps: normal; font-weight: 400; letter-spacing: normal; orphans: 2; text-align: center; text-indent: 0px; text-transform: none; widows: 2; word-spacing: 0px; -webkit-text-stroke-width: 0px; text-decoration-thickness: initial; text-decoration-style: initial; text-decoration-color: initial;&quot;&gt;Resources" style="edgeStyle=orthogonalEdgeStyle;rounded=0;orthogonalLoop=1;jettySize=auto;html=1;" parent="1" source="h74z9uMU7J8Vw6V2kUzG-9" target="h74z9uMU7J8Vw6V2kUzG-29" edge="1">
          <mxGeometry relative="1" as="geometry">
            <mxPoint x="780" y="148" as="targetPoint" />
          </mxGeometry>
        </mxCell>
        <mxCell id="h74z9uMU7J8Vw6V2kUzG-9" value="Scan Vulnerabilities" style="whiteSpace=wrap;html=1;verticalAlign=top;labelBackgroundColor=default;" parent="1" vertex="1">
          <mxGeometry x="510.28999999999996" y="118" width="120" height="60" as="geometry" />
        </mxCell>
        <mxCell id="h74z9uMU7J8Vw6V2kUzG-16" value="" style="edgeStyle=orthogonalEdgeStyle;rounded=0;orthogonalLoop=1;jettySize=auto;html=1;" parent="1" source="h74z9uMU7J8Vw6V2kUzG-13" target="h74z9uMU7J8Vw6V2kUzG-15" edge="1">
          <mxGeometry relative="1" as="geometry" />
        </mxCell>
        <mxCell id="h74z9uMU7J8Vw6V2kUzG-13" value="Scan Virus" style="whiteSpace=wrap;html=1;verticalAlign=top;labelBackgroundColor=default;" parent="1" vertex="1">
          <mxGeometry x="343" y="506" width="120" height="60" as="geometry" />
        </mxCell>
        <mxCell id="h74z9uMU7J8Vw6V2kUzG-15" value="Scan Vulnerabilities" style="whiteSpace=wrap;html=1;verticalAlign=top;labelBackgroundColor=default;" parent="1" vertex="1">
          <mxGeometry x="543" y="506" width="120" height="60" as="geometry" />
        </mxCell>
        <mxCell id="h74z9uMU7J8Vw6V2kUzG-17" value="" style="verticalLabelPosition=bottom;sketch=0;html=1;fillColor=#A153A0;strokeColor=#ffffff;verticalAlign=top;align=center;points=[[0,0.5,0],[0.125,0.25,0],[0.25,0,0],[0.5,0,0],[0.75,0,0],[0.875,0.25,0],[1,0.5,0],[0.875,0.75,0],[0.75,1,0],[0.5,1,0],[0.125,0.75,0]];pointerEvents=1;shape=mxgraph.cisco_safe.compositeIcon;bgIcon=ellipse;resIcon=mxgraph.cisco_safe.design.users;" parent="1" vertex="1">
          <mxGeometry x="272.29" y="133" width="27.71" height="30" as="geometry" />
        </mxCell>
        <mxCell id="h74z9uMU7J8Vw6V2kUzG-18" value="" style="verticalLabelPosition=bottom;sketch=0;html=1;fillColor=#A153A0;strokeColor=#ffffff;verticalAlign=top;align=center;points=[[0,0.5,0],[0.125,0.25,0],[0.25,0,0],[0.5,0,0],[0.75,0,0],[0.875,0.25,0],[1,0.5,0],[0.875,0.75,0],[0.75,1,0],[0.5,1,0],[0.125,0.75,0]];pointerEvents=1;shape=mxgraph.cisco_safe.compositeIcon;bgIcon=ellipse;resIcon=mxgraph.cisco_safe.design.users;" parent="1" vertex="1">
          <mxGeometry x="293" y="521" width="27.71" height="30" as="geometry" />
        </mxCell>
        <mxCell id="h74z9uMU7J8Vw6V2kUzG-19" value="" style="edgeStyle=orthogonalEdgeStyle;rounded=0;orthogonalLoop=1;jettySize=auto;html=1;endArrow=none;" parent="1" source="h74z9uMU7J8Vw6V2kUzG-6" target="h74z9uMU7J8Vw6V2kUzG-18" edge="1">
          <mxGeometry relative="1" as="geometry">
            <mxPoint x="279.99999999999994" y="536" as="sourcePoint" />
            <mxPoint x="342.99999999999994" y="536" as="targetPoint" />
          </mxGeometry>
        </mxCell>
        <mxCell id="h74z9uMU7J8Vw6V2kUzG-26" value="" style="edgeStyle=orthogonalEdgeStyle;rounded=0;orthogonalLoop=1;jettySize=auto;html=1;" parent="1" source="h74z9uMU7J8Vw6V2kUzG-21" target="h74z9uMU7J8Vw6V2kUzG-25" edge="1">
          <mxGeometry relative="1" as="geometry" />
        </mxCell>
        <mxCell id="h74z9uMU7J8Vw6V2kUzG-21" value="&lt;span style=&quot;&quot;&gt;Scan Virus&lt;/span&gt;" style="whiteSpace=wrap;html=1;verticalAlign=top;labelBackgroundColor=default;" parent="1" vertex="1">
          <mxGeometry x="340.71" y="606" width="120" height="60" as="geometry" />
        </mxCell>
        <mxCell id="h74z9uMU7J8Vw6V2kUzG-28" value="" style="edgeStyle=orthogonalEdgeStyle;rounded=0;orthogonalLoop=1;jettySize=auto;html=1;" parent="1" source="h74z9uMU7J8Vw6V2kUzG-23" target="h74z9uMU7J8Vw6V2kUzG-27" edge="1">
          <mxGeometry relative="1" as="geometry" />
        </mxCell>
        <mxCell id="h74z9uMU7J8Vw6V2kUzG-23" value="Scan Virus" style="whiteSpace=wrap;html=1;verticalAlign=top;labelBackgroundColor=default;" parent="1" vertex="1">
          <mxGeometry x="343" y="706" width="120" height="60" as="geometry" />
        </mxCell>
        <mxCell id="h74z9uMU7J8Vw6V2kUzG-25" value="Scan Vulnerabilities" style="whiteSpace=wrap;html=1;verticalAlign=top;labelBackgroundColor=default;" parent="1" vertex="1">
          <mxGeometry x="540.71" y="606" width="120" height="60" as="geometry" />
        </mxCell>
        <mxCell id="h74z9uMU7J8Vw6V2kUzG-27" value="Scan Vulnerabilities" style="whiteSpace=wrap;html=1;verticalAlign=top;labelBackgroundColor=default;" parent="1" vertex="1">
          <mxGeometry x="543" y="706" width="120" height="60" as="geometry" />
        </mxCell>
        <mxCell id="h74z9uMU7J8Vw6V2kUzG-37" value="" style="edgeStyle=orthogonalEdgeStyle;rounded=0;orthogonalLoop=1;jettySize=auto;html=1;" parent="1" source="h74z9uMU7J8Vw6V2kUzG-29" target="h74z9uMU7J8Vw6V2kUzG-36" edge="1">
          <mxGeometry relative="1" as="geometry" />
        </mxCell>
        <mxCell id="h74z9uMU7J8Vw6V2kUzG-29" value="" style="shadow=0;dashed=0;html=1;strokeColor=none;fillColor=#EF8F21;labelPosition=center;verticalLabelPosition=bottom;verticalAlign=top;align=center;outlineConnect=0;shape=mxgraph.veeam.2d.on_demand_sandbox;" parent="1" vertex="1">
          <mxGeometry x="765" y="125.6" width="44.8" height="44.8" as="geometry" />
        </mxCell>
        <mxCell id="h74z9uMU7J8Vw6V2kUzG-20" value="" style="verticalLabelPosition=bottom;sketch=0;html=1;fillColor=#A153A0;strokeColor=#ffffff;verticalAlign=top;align=center;points=[[0,0.5,0],[0.125,0.25,0],[0.25,0,0],[0.5,0,0],[0.75,0,0],[0.875,0.25,0],[1,0.5,0],[0.875,0.75,0],[0.75,1,0],[0.5,1,0],[0.125,0.75,0]];pointerEvents=1;shape=mxgraph.cisco_safe.compositeIcon;bgIcon=ellipse;resIcon=mxgraph.cisco_safe.design.users;" parent="1" vertex="1">
          <mxGeometry x="293" y="616" width="27.71" height="30" as="geometry" />
        </mxCell>
        <mxCell id="h74z9uMU7J8Vw6V2kUzG-31" value="" style="edgeStyle=orthogonalEdgeStyle;rounded=0;orthogonalLoop=1;jettySize=auto;html=1;endArrow=none;" parent="1" source="h74z9uMU7J8Vw6V2kUzG-7" target="h74z9uMU7J8Vw6V2kUzG-20" edge="1">
          <mxGeometry relative="1" as="geometry">
            <mxPoint x="279.99999999999994" y="636" as="sourcePoint" />
            <mxPoint x="340.71" y="636" as="targetPoint" />
          </mxGeometry>
        </mxCell>
        <mxCell id="h74z9uMU7J8Vw6V2kUzG-32" value="" style="verticalLabelPosition=bottom;sketch=0;html=1;fillColor=#A153A0;strokeColor=#ffffff;verticalAlign=top;align=center;points=[[0,0.5,0],[0.125,0.25,0],[0.25,0,0],[0.5,0,0],[0.75,0,0],[0.875,0.25,0],[1,0.5,0],[0.875,0.75,0],[0.75,1,0],[0.5,1,0],[0.125,0.75,0]];pointerEvents=1;shape=mxgraph.cisco_safe.compositeIcon;bgIcon=ellipse;resIcon=mxgraph.cisco_safe.design.users;" parent="1" vertex="1">
          <mxGeometry x="293" y="716" width="27.71" height="30" as="geometry" />
        </mxCell>
        <mxCell id="h74z9uMU7J8Vw6V2kUzG-33" value="" style="edgeStyle=orthogonalEdgeStyle;rounded=0;orthogonalLoop=1;jettySize=auto;html=1;endArrow=none;" parent="1" source="h74z9uMU7J8Vw6V2kUzG-8" target="h74z9uMU7J8Vw6V2kUzG-32" edge="1">
          <mxGeometry relative="1" as="geometry">
            <mxPoint x="279.99999999999994" y="736" as="sourcePoint" />
            <mxPoint x="342.99999999999994" y="736" as="targetPoint" />
          </mxGeometry>
        </mxCell>
        <mxCell id="h74z9uMU7J8Vw6V2kUzG-39" value="" style="edgeStyle=orthogonalEdgeStyle;rounded=0;orthogonalLoop=1;jettySize=auto;html=1;" parent="1" source="h74z9uMU7J8Vw6V2kUzG-36" target="h74z9uMU7J8Vw6V2kUzG-38" edge="1">
          <mxGeometry relative="1" as="geometry" />
        </mxCell>
        <mxCell id="h74z9uMU7J8Vw6V2kUzG-36" value="Install Base Packages&lt;br&gt;EHS, EO, Orthanc" style="whiteSpace=wrap;html=1;verticalAlign=top;labelBackgroundColor=default;" parent="1" vertex="1">
          <mxGeometry x="870" y="118" width="120" height="60" as="geometry" />
        </mxCell>
        <mxCell id="h74z9uMU7J8Vw6V2kUzG-41" value="" style="edgeStyle=orthogonalEdgeStyle;rounded=0;orthogonalLoop=1;jettySize=auto;html=1;" parent="1" source="h74z9uMU7J8Vw6V2kUzG-38" target="h74z9uMU7J8Vw6V2kUzG-40" edge="1">
          <mxGeometry relative="1" as="geometry" />
        </mxCell>
        <mxCell id="h74z9uMU7J8Vw6V2kUzG-38" value="Install 3P" style="whiteSpace=wrap;html=1;verticalAlign=top;labelBackgroundColor=default;" parent="1" vertex="1">
          <mxGeometry x="870" y="234" width="120" height="60" as="geometry" />
        </mxCell>
        <mxCell id="h74z9uMU7J8Vw6V2kUzG-43" value="" style="edgeStyle=orthogonalEdgeStyle;rounded=0;orthogonalLoop=1;jettySize=auto;html=1;" parent="1" source="h74z9uMU7J8Vw6V2kUzG-40" target="h74z9uMU7J8Vw6V2kUzG-42" edge="1">
          <mxGeometry relative="1" as="geometry" />
        </mxCell>
        <mxCell id="h74z9uMU7J8Vw6V2kUzG-40" value="Run Interface Validation" style="whiteSpace=wrap;html=1;verticalAlign=top;labelBackgroundColor=default;" parent="1" vertex="1">
          <mxGeometry x="670" y="234" width="120" height="60" as="geometry" />
        </mxCell>
        <mxCell id="h74z9uMU7J8Vw6V2kUzG-45" value="" style="edgeStyle=orthogonalEdgeStyle;rounded=0;orthogonalLoop=1;jettySize=auto;html=1;" parent="1" source="h74z9uMU7J8Vw6V2kUzG-42" target="h74z9uMU7J8Vw6V2kUzG-44" edge="1">
          <mxGeometry relative="1" as="geometry" />
        </mxCell>
        <mxCell id="h74z9uMU7J8Vw6V2kUzG-42" value="Sandbox access to Integrator" style="whiteSpace=wrap;html=1;verticalAlign=top;labelBackgroundColor=default;" parent="1" vertex="1">
          <mxGeometry x="470" y="234" width="120" height="60" as="geometry" />
        </mxCell>
        <mxCell id="h74z9uMU7J8Vw6V2kUzG-47" value="" style="edgeStyle=orthogonalEdgeStyle;rounded=0;orthogonalLoop=1;jettySize=auto;html=1;" parent="1" source="h74z9uMU7J8Vw6V2kUzG-44" target="h74z9uMU7J8Vw6V2kUzG-46" edge="1">
          <mxGeometry relative="1" as="geometry" />
        </mxCell>
        <mxCell id="h74z9uMU7J8Vw6V2kUzG-44" value="Automated Test Case Execution" style="whiteSpace=wrap;html=1;verticalAlign=top;labelBackgroundColor=default;" parent="1" vertex="1">
          <mxGeometry x="270" y="234" width="120" height="60" as="geometry" />
        </mxCell>
        <mxCell id="TmRz8uflpvzPCeREPCcE-3" value="" style="edgeStyle=orthogonalEdgeStyle;rounded=0;orthogonalLoop=1;jettySize=auto;html=1;" edge="1" parent="1" source="h74z9uMU7J8Vw6V2kUzG-46" target="TmRz8uflpvzPCeREPCcE-2">
          <mxGeometry relative="1" as="geometry" />
        </mxCell>
        <mxCell id="h74z9uMU7J8Vw6V2kUzG-46" value="Shared Sandbox Provisioning" style="whiteSpace=wrap;html=1;verticalAlign=top;labelBackgroundColor=default;" parent="1" vertex="1">
          <mxGeometry x="70" y="234" width="120" height="60" as="geometry" />
        </mxCell>
        <mxCell id="TmRz8uflpvzPCeREPCcE-1" value="&lt;span style=&quot;font-size:11.0pt;font-family:&amp;quot;Calibri&amp;quot;,sans-serif;&#xa;mso-fareast-font-family:Calibri;mso-fareast-theme-font:minor-latin;mso-ansi-language:&#xa;EN-US;mso-fareast-language:EN-US;mso-bidi-language:AR-SA&quot;&gt;gehealthcloudstd005&lt;/span&gt;" style="text;whiteSpace=wrap;html=1;" vertex="1" parent="1">
          <mxGeometry x="140" y="20" width="160" height="40" as="geometry" />
        </mxCell>
        <mxCell id="TmRz8uflpvzPCeREPCcE-2" value="Move artifacts in Artifactory/Nexus" style="whiteSpace=wrap;html=1;verticalAlign=top;labelBackgroundColor=default;" vertex="1" parent="1">
          <mxGeometry x="70" y="374" width="120" height="60" as="geometry" />
        </mxCell>
      </root>
    </mxGraphModel>
  </diagram>
</mxfile>
